<?xml version="1.0" encoding="UTF-8"?>
<svg width="12px" height="12px" viewBox="0 0 12 12" version="1.1" xmlns="http://www.w3.org/2000/svg" xmlns:xlink="http://www.w3.org/1999/xlink">
    <!-- Generator: Sketch 42 (36781) - http://www.bohemiancoding.com/sketch -->
    <title>Combined Shape</title>
    <desc>Created with Sketch.</desc>
    <defs></defs>
    <g id="Page-1" stroke="none" stroke-width="1" fill="none" fill-rule="evenodd">
        <g id="版权机构信息" transform="translate(-629.000000, -898.000000)" fill="#0037FF">
            <path d="M629,898 L641,898 L641,910 L629,910 L629,898 Z M631.4,901.255985 C631.925003,901.255985 632.299999,901.556535 632.525,902.157643 L634.6625,907.467403 L635.50625,907.467403 L637.5875,902.101289 C637.775001,901.53775 638.168747,901.255985 638.76875,901.255985 L638.76875,900.805157 L635.9,900.805157 L635.9,901.255985 C636.837505,901.293555 637.137502,901.669241 636.8,902.383057 L635.675,905.720442 L634.38125,902.044936 C634.156249,901.556535 634.212498,901.293555 634.55,901.255985 L635.05625,901.255985 L635.05625,900.805157 L631.4,900.805157 L631.4,901.255985 Z" id="Combined-Shape"></path>
        </g>
    </g>
</svg>