<?xml version="1.0" encoding="UTF-8"?>
<svg width="12px" height="12px" viewBox="0 0 12 12" version="1.1" xmlns="http://www.w3.org/2000/svg" xmlns:xlink="http://www.w3.org/1999/xlink">
    <!-- Generator: Sketch 42 (36781) - http://www.bohemiancoding.com/sketch -->
    <title>Combined Shape Copy</title>
    <desc>Created with Sketch.</desc>
    <defs></defs>
    <g id="Page-1" stroke="none" stroke-width="1" fill="none" fill-rule="evenodd">
        <g id="我关注的人" transform="translate(-604.000000, -664.000000)" fill="#FFCD00">
            <g id="Group-6-Copy-13" transform="translate(430.000000, 636.000000)">
                <path d="M174,28 L186,28 L186,40 L174,40 L174,28 Z M176.4,31.2559853 C176.925003,31.2559853 177.299999,31.5565347 177.525,32.1576427 L179.6625,37.4674033 L180.50625,37.4674033 L182.5875,32.1012891 C182.775001,31.5377504 183.168747,31.2559853 183.76875,31.2559853 L183.76875,30.8051565 L180.9,30.8051565 L180.9,31.2559853 C181.837505,31.2935545 182.137502,31.6692414 181.8,32.3830571 L180.675,35.720442 L179.38125,32.0449355 C179.156249,31.5565353 179.212498,31.2935545 179.55,31.2559853 L180.05625,31.2559853 L180.05625,30.8051565 L176.4,30.8051565 L176.4,31.2559853 Z" id="Combined-Shape-Copy"></path>
            </g>
        </g>
    </g>
</svg>