<?xml version="1.0" encoding="UTF-8"?>
<svg width="175px" height="175px" viewBox="0 0 175 175" version="1.1" xmlns="http://www.w3.org/2000/svg" xmlns:xlink="http://www.w3.org/1999/xlink">
    <!-- Generator: Sketch 43.1 (39012) - http://www.bohemiancoding.com/sketch -->
    <title>联系人@1x</title>
    <desc>Created with Sketch.</desc>
    <defs>
        <rect id="path-1" x="770" y="386" width="12" height="42"></rect>
        <rect id="path-2" x="780" y="386" width="12" height="42"></rect>
        <rect id="path-3" x="795.702068" y="346.405891" width="10" height="34" rx="5"></rect>
        <rect id="path-4" x="769" y="364" width="24" height="34"></rect>
        <ellipse id="path-5" cx="781" cy="350" rx="23" ry="23"></ellipse>
        <ellipse id="path-6" cx="783" cy="347" rx="13" ry="14"></ellipse>
        <rect id="path-7" x="807" y="333" width="18" height="30"></rect>
        <rect id="path-8" x="759.262252" y="369.701657" width="10" height="34" rx="5"></rect>
    </defs>
    <g id="Page-1" stroke="none" stroke-width="1" fill="none" fill-rule="evenodd">
        <g id="我关注的人-空页面" transform="translate(-713.000000, -280.000000)">
            <rect id="Rectangle-3" fill="#666870" x="829" y="343" width="2" height="10"></rect>
            <rect id="Rectangle-3-Copy" fill="#666870" x="835" y="340" width="2" height="16"></rect>
            <rect id="Rectangle-3-Copy-2" fill="#666870" x="841" y="336" width="2" height="24"></rect>
            <rect id="Rectangle-3-Copy-3" fill="#666870" x="847" y="331" width="2" height="34"></rect>
            <rect id="Rectangle-8" fill="#666870" x="735" y="426" width="132" height="2"></rect>
            <g id="Rectangle-Copy-3">
                <use fill="#F5F5F6" fill-rule="evenodd" xlink:href="#path-1"></use>
                <rect stroke="#666870" stroke-width="2" x="771" y="387" width="10" height="40"></rect>
            </g>
            <g id="Rectangle-Copy-4">
                <use fill="#F5F5F6" fill-rule="evenodd" xlink:href="#path-2"></use>
                <rect stroke="#666870" stroke-width="2" x="781" y="387" width="10" height="40"></rect>
            </g>
            <g id="Rectangle-Copy" transform="translate(800.702068, 363.405891) rotate(46.000000) translate(-800.702068, -363.405891) ">
                <use fill="#F5F5F6" fill-rule="evenodd" xlink:href="#path-3"></use>
                <rect stroke="#666870" stroke-width="2" x="796.702068" y="347.405891" width="8" height="32" rx="4"></rect>
            </g>
            <g id="Rectangle">
                <use fill="#F5F5F6" fill-rule="evenodd" xlink:href="#path-4"></use>
                <rect stroke="#666870" stroke-width="2" x="770" y="365" width="22" height="32"></rect>
            </g>
            <g id="Oval-6">
                <use fill="#F5F5F6" fill-rule="evenodd" xlink:href="#path-5"></use>
                <ellipse stroke="#666870" stroke-width="2" cx="781" cy="350" rx="22" ry="22"></ellipse>
            </g>
            <g id="Oval-6-Copy">
                <use fill="#FFFFFF" fill-rule="evenodd" xlink:href="#path-6"></use>
                <ellipse stroke="#666870" stroke-width="2" cx="783" cy="347" rx="12" ry="13"></ellipse>
            </g>
            <g id="Rectangle-2">
                <use fill="#CCD7FF" fill-rule="evenodd" xlink:href="#path-7"></use>
                <rect stroke="#666870" stroke-width="2" x="808" y="334" width="16" height="28"></rect>
            </g>
            <g id="Rectangle-Copy-2" transform="translate(764.262252, 386.701657) rotate(19.000000) translate(-764.262252, -386.701657) ">
                <use fill="#F5F5F6" fill-rule="evenodd" xlink:href="#path-8"></use>
                <rect stroke="#666870" stroke-width="2" x="760.262252" y="370.701657" width="8" height="32" rx="4"></rect>
            </g>
        </g>
    </g>
</svg>