<?xml version="1.0" encoding="UTF-8"?>
<svg width="24px" height="17px" viewBox="0 0 24 17" version="1.1" xmlns="http://www.w3.org/2000/svg" xmlns:xlink="http://www.w3.org/1999/xlink">
    <!-- Generator: Sketch 42 (36781) - http://www.bohemiancoding.com/sketch -->
    <title>Group 12</title>
    <desc>Created with Sketch.</desc>
    <defs>
        <path d="M16.2362485,12.6886622 C16.9526473,11.4523855 17.3617021,10.0229675 17.3617021,8.5 C17.3617021,3.80557963 13.4751527,0 8.68085106,0 C3.88654941,0 0,3.80557963 0,8.5 C0,13.1944204 3.88654941,17 8.68085106,17 C10.2362221,17 11.6960532,16.5994672 12.9586338,15.8979933 L16.2396714,16.3271933 C16.5186244,16.3636838 16.7116171,16.1727996 16.6745804,15.9013449 L16.2362485,12.6886622 Z" id="path-1"></path>
        <mask id="mask-2" maskContentUnits="userSpaceOnUse" maskUnits="objectBoundingBox" x="0" y="0" width="17.3617021" height="17" fill="white">
            <use xlink:href="#path-1"></use>
        </mask>
        <path d="M0.401892306,1.09146639 C1.45577764,0.401992339 2.72249801,0 4.08510638,0 C7.75133706,0 10.7234043,2.91014913 10.7234043,6.5 C10.7234043,7.66594876 10.4098846,8.76019663 9.86089027,9.70632466 C9.86469384,9.72298523 9.8677743,9.73982232 9.87009059,9.75679921 L10.1813434,12.0380764 C10.2188417,12.3129142 10.0296822,12.5069934 9.75548693,12.4711253 L7.39672648,12.1625705 C7.38388671,12.1608909 7.37109638,12.1587496 7.35837527,12.1561644 C6.39240894,12.6932821 5.27533867,13 4.08510638,13 C2.98586625,13 1.94902939,12.7383861 1.03599373,12.2752771 C2.29843787,10.8670601 3.06382979,9.02105134 3.06382979,7 C3.06382979,4.65984377 2.0376608,2.55436892 0.401892306,1.09146639 Z" id="path-3"></path>
        <mask id="mask-4" maskContentUnits="userSpaceOnUse" maskUnits="objectBoundingBox" x="0" y="0" width="10.3215119" height="13" fill="white">
            <use xlink:href="#path-3"></use>
        </mask>
    </defs>
    <g id="Page-1" stroke="none" stroke-width="1" fill="none" fill-rule="evenodd">
        <g id="个人信息" transform="translate(-877.000000, -779.000000)">
            <g id="Group-5" transform="translate(450.000000, 706.000000)">
                <g id="Group-3" transform="translate(144.000000, 70.000000)">
                    <g id="Group-2">
                        <g id="Group-12" transform="translate(283.000000, 3.000000)">
                            <g id="Group-10" transform="translate(6.638298, 0.000000)">
                                <use id="Combined-Shape" stroke="#000000" mask="url(#mask-2)" stroke-width="2" xlink:href="#path-1"></use>
                                <path d="M8.68085106,9.5 C9.24488655,9.5 9.70212766,9.05228475 9.70212766,8.5 C9.70212766,7.94771525 9.24488655,7.5 8.68085106,7.5 C8.11681557,7.5 7.65957447,7.94771525 7.65957447,8.5 C7.65957447,9.05228475 8.11681557,9.5 8.68085106,9.5 Z" id="Oval-125" fill="#000000"></path>
                                <path d="M12.7659574,9.5 C13.3299929,9.5 13.787234,9.05228475 13.787234,8.5 C13.787234,7.94771525 13.3299929,7.5 12.7659574,7.5 C12.201922,7.5 11.7446809,7.94771525 11.7446809,8.5 C11.7446809,9.05228475 12.201922,9.5 12.7659574,9.5 Z" id="Oval-125-Copy-2" fill="#000000"></path>
                                <path d="M4.59574468,9.5 C5.15978017,9.5 5.61702128,9.05228475 5.61702128,8.5 C5.61702128,7.94771525 5.15978017,7.5 4.59574468,7.5 C4.03170919,7.5 3.57446809,7.94771525 3.57446809,8.5 C3.57446809,9.05228475 4.03170919,9.5 4.59574468,9.5 Z" id="Oval-125-Copy" fill="#000000"></path>
                            </g>
                            <g id="Group-10-Copy" transform="translate(5.361702, 8.000000) scale(-1, 1) translate(-5.361702, -8.000000) translate(0.000000, 1.500000)">
                                <use id="Combined-Shape" stroke="#000000" mask="url(#mask-4)" stroke-width="2" xlink:href="#path-3"></use>
                                <path d="M4.08510638,7.26470588 C4.51642764,7.26470588 4.8660826,6.9223354 4.8660826,6.5 C4.8660826,6.0776646 4.51642764,5.73529412 4.08510638,5.73529412 C3.65378513,5.73529412 3.30413016,6.0776646 3.30413016,6.5 C3.30413016,6.9223354 3.65378513,7.26470588 4.08510638,7.26470588 Z" id="Oval-125" fill="#000000"></path>
                                <path d="M7.20901126,7.26470588 C7.64033252,7.26470588 7.98998748,6.9223354 7.98998748,6.5 C7.98998748,6.0776646 7.64033252,5.73529412 7.20901126,5.73529412 C6.77769001,5.73529412 6.42803504,6.0776646 6.42803504,6.5 C6.42803504,6.9223354 6.77769001,7.26470588 7.20901126,7.26470588 Z" id="Oval-125-Copy-2" fill="#000000"></path>
                            </g>
                        </g>
                    </g>
                </g>
            </g>
        </g>
    </g>
</svg>