<?xml version="1.0" encoding="UTF-8"?>
<svg width="17px" height="22px" viewBox="0 0 17 22" version="1.1" xmlns="http://www.w3.org/2000/svg" xmlns:xlink="http://www.w3.org/1999/xlink">
    <!-- Generator: Sketch 42 (36781) - http://www.bohemiancoding.com/sketch -->
    <title>dci copy 2</title>
    <desc>Created with Sketch.</desc>
    <defs></defs>
    <g id="Page-1" stroke="none" stroke-width="1" fill="none" fill-rule="evenodd">
        <g id="关注的作品" transform="translate(-560.000000, -173.000000)">
            <g id="Group-6-Copy-6" transform="translate(410.000000, 140.000000)">
                <g id="dci" transform="translate(150.000000, 33.000000)">
                    <g>
                        <path d="M16.9886113,13.2853455 C16.9886113,15.2159165 15.404288,16.7805679 13.4501188,16.7805679 L3.5384797,16.7805679 C1.58418271,16.7805679 -1.27819549e-05,15.2159165 -1.27819549e-05,13.2853455 L-1.27819549e-05,3.49502984 C-1.27819549e-05,1.56477446 1.58418271,-3.15638451e-06 3.5384797,-3.15638451e-06 L13.4501188,-3.15638451e-06 C15.404288,-3.15638451e-06 16.9886113,1.56477446 16.9886113,3.49502984 L16.9886113,13.2853455 Z" id="Fill-1" fill="#0099FE"></path>
                        <path d="M3.25630846,18.9305865 L3.25630846,20.8472063 L4.19533477,20.8472063 C4.29902838,20.8472063 4.38108853,20.815169 4.44161109,20.7512522 C4.5018141,20.6871145 4.54015996,20.633456 4.556425,20.5900241 C4.5727859,20.5466238 4.58099831,20.4265549 4.58099831,20.2303541 L4.58099831,19.7061102 C4.58099831,19.5368648 4.57694004,19.4074531 4.56936673,19.3168964 C4.56156974,19.2266554 4.53012613,19.1395076 4.47522763,19.0560212 C4.42032914,18.9722824 4.32679718,18.9305865 4.19533477,18.9305865 L3.25630846,18.9305865 Z M4.36543064,21.9889337 L2.06653214,21.9889337 L2.06653214,17.7826095 L4.28861109,17.7826095 C5.38047763,17.7826095 5.75323139,18.3537572 5.75323139,19.101126 L5.75323139,20.4901245 C5.75323139,21.3678204 5.39584793,21.9889337 4.36543064,21.9889337 L4.36543064,21.9889337 Z" id="Fill-4" fill="#0099FE"></path>
                        <path d="M7.63180489,20.3805222 L7.63180489,19.3018278 C7.63180489,18.3986284 8.16161692,17.8073113 9.00749474,17.8073113 L9.98371654,17.8073113 C10.6760511,17.8073113 11.2824271,18.2577905 11.2824271,19.0094835 L11.2824271,19.3705423 L10.1142203,19.3694692 C10.1064233,19.2834261 10.0977955,19.2930846 10.0874741,19.2269268 C10.0776959,19.1604849 10.047818,19.0940746 9.99899098,19.0265595 C9.94984436,18.9589813 9.84378609,18.925429 9.68056053,18.925429 L9.41383308,18.925429 C9.28626917,18.925429 9.27537256,18.9342669 9.19660376,18.9515954 C9.11786692,18.9691765 9.06041203,18.9919024 9.02446278,19.0202783 C8.98825789,19.0489383 8.95349098,19.1040172 8.92016203,19.1854519 C8.88680113,19.2672339 8.87012068,19.3835782 8.87012068,19.534043 L8.87012068,20.1761148 C8.87012068,20.3657504 8.88766391,20.5015065 8.92303797,20.5829412 C8.95802857,20.6644075 8.99375414,20.7205911 9.02989511,20.7512396 C9.06613195,20.7819197 9.12186128,20.8063501 9.19775414,20.8244677 C9.27390263,20.8432482 9.37360188,20.8523386 9.49777857,20.8523386 L9.63055113,20.8523386 C9.87714699,20.8523386 10.0210718,20.8188178 10.0628049,20.7526915 C10.1041545,20.6865337 10.1260117,20.6218594 10.1280248,20.5582267 L10.1446733,20.3788494 L11.3295605,20.3731994 L11.3295605,20.7870646 C11.3295605,21.3641463 10.895038,21.9735811 10.0299872,21.9735811 L9.1302015,21.9735811 C8.19206992,21.9735811 7.63180489,21.4592166 7.63180489,20.3805222" id="Fill-7" fill="#0099FE"></path>
                        <polygon id="Fill-9" fill="#0099FE" points="13.4653741 21.9492138 14.6091353 21.9492138 14.6091353 17.8073113 13.4653741 17.8073113"></polygon>
                        <path d="M13.4515727,6.10605108 L11.044475,6.68423759 C10.6771855,5.49342841 9.87540545,4.86268809 8.63753703,4.79201664 C6.89471748,4.89718737 5.97809154,6.14140258 5.88670056,8.52368379 C5.97809154,10.9067225 6.89471748,12.1677928 8.63753703,12.3074628 C10.0581555,12.2731214 10.8835182,11.432008 11.1134336,9.78491191 L13.5892344,10.5733452 C12.9928923,13.1306795 11.3421667,14.4270697 8.63753703,14.4625159 C5.15272876,14.2865791 3.49743365,12.2904499 3.31465169,8.47119311 C3.49743365,4.72251306 5.15272876,2.74251306 8.63753703,2.53232941 C11.1134336,2.63734232 12.717569,3.82884591 13.4515727,6.10605108" id="Fill-11" fill="#FEFEFE"></path>
                    </g>
                </g>
            </g>
        </g>
    </g>
</svg>