<?xml version="1.0" encoding="UTF-8"?>
<svg width="16px" height="16px" viewBox="0 0 16 16" version="1.1" xmlns="http://www.w3.org/2000/svg" xmlns:xlink="http://www.w3.org/1999/xlink">
    <!-- Generator: Sketch 42 (36781) - http://www.bohemiancoding.com/sketch -->
    <title>Shape</title>
    <desc>Created with Sketch.</desc>
    <defs></defs>
    <g id="Page-1" stroke="none" stroke-width="1" fill="none" fill-rule="evenodd">
        <g id="我关注的人" transform="translate(-622.000000, -152.000000)" fill="#9B9B9B">
            <g id="搜索" transform="translate(410.000000, 144.000000)">
                <path d="M213.143249,14.8542131 C213.143249,11.6996508 215.702499,9.14235286 218.859573,9.14235286 C222.0166,9.14235286 224.575897,11.6996508 224.575897,14.8542131 C224.575897,18.0086635 222.0166,20.5659454 218.859573,20.5659454 C215.702515,20.5659454 213.143249,18.0086795 213.143249,14.8542131 Z M227.833484,23.0266193 L224.093929,19.2842965 C225.107706,18.0895916 225.719178,16.5432544 225.719178,14.8542131 C225.719178,11.0686583 222.648008,8 218.859589,8 C215.07117,8 212,11.0686583 212,14.8542131 C212,18.639656 215.07117,21.7082983 218.859589,21.7082983 C220.547526,21.7082983 222.093048,21.0991298 223.288008,20.0888091 L227.029387,23.8329719 C227.251419,24.055676 227.61142,24.055676 227.8335,23.8329719 C228.055516,23.6102357 228.055516,23.2492435 227.833484,23.0266193 Z" id="Shape"></path>
            </g>
        </g>
    </g>
</svg>